<svg xmlns="http://www.w3.org/2000/svg" xmlns:xlink="http://www.w3.org/1999/xlink" fill="none" version="1.1" width="825.75" height="200" viewBox="0 0 825.75 200"><defs><clipPath id="master_svg0_1_1"><rect x="0" y="0" width="200" height="200" rx="0"/></clipPath><filter id="master_svg1_1_570" filterUnits="objectBoundingBox" color-interpolation-filters="sRGB" x="-30" y="-30" width="209.99998474121094" height="193.32958221435547"><feFlood flood-opacity="0" result="BackgroundImageFix"/><feColorMatrix in="SourceAlpha" type="matrix" values="0 0 0 0 0 0 0 0 0 0 0 0 0 0 0 0 0 0 127 0"/><feOffset dy="10" dx="10"/><feGaussianBlur stdDeviation="10"/><feColorMatrix type="matrix" values="0 0 0 0 0 0 0 0 0 0 0 0 0 0 0 0 0 0 0.15000000596046448 0"/><feBlend mode="normal" in2="BackgroundImageFix" result="effect1_dropShadow"/><feBlend mode="normal" in="SourceGraphic" in2="effect1_dropShadow" result="shape"/></filter></defs><g><g clip-path="url(#master_svg0_1_1)"><g><path d="M58.6043,0L141.396,0C180.465,0,200,19.5355,200,58.6043L200,141.396C200,180.465,180.465,200,141.396,200L58.6043,200C19.5355,199.998,0,180.462,0,141.394L0,58.6043C0,19.5355,19.5355,0,58.6043,0Z" fill="#004EFF" fill-opacity="1"/></g><g filter="url(#master_svg1_1_570)"><g><path d="M159.29806103515625,156.32898624420164L40.70190103515625,156.32898624420164C37.57869103515625,156.35198624420167,35.02745803515625,153.83998624420167,35.00006103515625,150.71728624420166L35.00006103515625,58.61115624420166C35.00006103515625,55.47631624420166,37.59030103515625,52.99898624420166,40.70190103515625,52.99898624420166L159.29806103515625,52.99898624420166C162.48306103515625,52.99898624420166,165.00006103515625,55.54937624420166,165.00006103515625,58.61115624420166L165.00006103515625,150.71728624420166C165.00006103515625,153.84898624420165,162.41006103515625,156.32898624420164,159.29806103515625,156.32898624420164Z" fill="#FFA000" fill-opacity="1"/></g><g><path d="M98.3346,79.6585L35.0000299596,79.6585L35.0000299596,48.99407C34.99006735,45.6965,37.47404,43.0166046,40.55575,43L83.9057,43C86.3631,43,88.5216,44.71354,89.24549999999999,47.28053L98.3346,79.6651L98.3346,79.6585Z" fill="#FFA000" fill-opacity="1"/></g><g><path d="M149.56776341247559,149.6612724884033L53.76261341247559,149.6612724884033C50.73071341247559,149.6612724884033,48.329763412475586,147.14077248840331,48.329763412475586,144.11547248840333L48.329763412475586,68.54373248840332C48.329763412475586,65.44541248840332,50.79713341247559,62.99797248840332,53.76261341247559,62.99797248840332L149.56776341247559,62.99797248840332C152.6037634124756,62.99797248840332,155.00076341247558,65.52179248840332,155.00076341247558,68.54373248840332L155.00076341247558,144.11547248840333C155.06776341247559,147.14077248840331,152.6037634124756,149.6612724884033,149.56776341247559,149.6612724884033Z" fill="#FFFFFF" fill-opacity="1"/></g><g><path d="M159.29806103515625,156.3294253540039L40.70190103515625,156.3294253540039C37.51724103515625,156.3294253540039,35.00006103515625,153.80232535400393,35.00006103515625,150.77042535400392L35.00006103515625,78.5559653540039C35.00006103515625,75.45100535400391,37.59030103515625,72.9969253540039,40.70190103515625,72.9969253540039L159.29806103515625,72.9969253540039C162.48306103515625,72.9969253540039,165.00006103515625,75.52406535400391,165.00006103515625,78.5559653540039L165.00006103515625,150.77042535400392C165.00006103515625,153.8753253540039,162.41006103515625,156.3294253540039,159.29806103515625,156.3294253540039Z" fill="#FFCA28" fill-opacity="1"/></g><g><path d="M78.89792057647705,95.77773972045898L47.84496057647705,95.77773972045898C46.31074057647705,95.77773972045898,44.99902057647705,94.44608972045899,44.99902057647705,92.72258972045898C44.99902057647705,91.07545972045898,46.24101057647705,89.66411972045898,47.84496057647705,89.66411972045898L78.82482057647705,89.66411972045898C80.35242057647704,89.66411972045898,81.66742057647704,90.99576972045898,81.66742057647704,92.72258972045898C81.66742057647704,94.36971972045899,80.42542057647705,95.78105972045898,78.89792057647705,95.78105972045898L78.89792057647705,95.77773972045898ZM78.89792057647705,116.33021972045898L47.84496057647705,116.33021972045898C46.31074057647705,116.33021972045898,44.99902057647705,114.99531972045898,44.99902057647705,113.27181972045898C44.99902057647705,111.54491972045898,46.24101057647705,110.21001972045899,47.84496057647705,110.21001972045899L78.82482057647705,110.21001972045899C80.35242057647704,110.21001972045899,81.66742057647704,111.54491972045898,81.66742057647704,113.27181972045898C81.66742057647704,114.99861972045898,80.42542057647705,116.33021972045898,78.89792057647705,116.33021972045898Z" fill="#FFF8E1" fill-opacity="1"/></g></g></g><g><path d="M242.7,55.224996948242186L303.15,55.224996948242186Q297.45,44.57499694824219,288.75,34.82499694824219L303,29.574996948242188Q311.25,40.67499694824219,318.15,55.224996948242186L375,55.224996948242186L375,69.32499694824219L352.05,69.32499694824219Q341.25,103.37499694824218,320.1,126.62499694824218Q343.5,145.8249969482422,378.3,158.42499694824218L370.35,170.42499694824218Q334.05,156.92499694824218,310.2,136.67499694824218Q284.85,159.17499694824218,247.65,169.9749969482422L240,157.3749969482422Q276.3,147.92499694824218,300.15,127.52499694824219Q275.4,102.77499694824219,265.65,69.32499694824219L242.7,69.32499694824219L242.7,55.224996948242186ZM279.3,69.32499694824219Q288.9,97.2249969482422,310.05,117.77499694824219Q328.35,97.67499694824218,337.35,69.32499694824219L279.3,69.32499694824219ZM434.85,36.02499694824219Q429.3,53.724996948242186,420.15,69.62499694824218L420.15,169.52499694824218L406.2,169.52499694824218L406.2,90.32499694824219Q400.65,97.52499694824219,392.85,105.77499694824219L388.2,90.62499694824218Q410.7,64.52499694824219,421.5,29.874999948242188L434.85,36.02499694824219ZM460.65,42.474996948242186Q458.7,53.57499694824219,456.45,61.67499694824219L474.45,61.67499694824219L474.45,31.67500694824219L488.7,31.67500694824219L488.7,61.67499694824219L521.85,61.67499694824219L521.85,75.62499694824218L488.7,75.62499694824218L488.7,107.87499694824218L527.4,107.87499694824218L527.4,121.67499694824218L488.7,121.67499694824218L488.7,168.92499694824218L474.45,168.92499694824218L474.45,121.67499694824218L431.85,121.67499694824218L431.85,107.87499694824218L474.45,107.87499694824218L474.45,75.62499694824218L451.8,75.62499694824218Q446.1,89.87499694824218,438.15,101.42499694824218L429,89.57499694824219Q442.2,69.32499694824219,446.7,40.67499694824219L460.65,42.474996948242186ZM542.4,128.7249969482422Q547.35,126.4749969482422,547.35,122.27499694824219L547.35,50.124996948242185L561.15,50.124996948242185L561.15,123.4749969482422Q570,120.4749969482422,578.7,117.17499694824218L578.7,31.824996948242188L592.65,31.824996948242188L592.65,168.4749969482422L578.7,168.4749969482422L578.7,130.8249969482422Q562.95,136.52499694824218,546.6,140.7249969482422L542.4,128.7249969482422ZM613.5,89.27499694824219Q609.45,96.92499694824218,604.5,103.67499694824218L595.95,92.57499694824219Q612.45,67.82499694824219,618.3,31.224996948242186L632.25,32.874996948242185Q630.45,42.92499694824219,627.45,54.02499694824219L674.4,54.02499694824219L674.4,67.9749969482422L663.9,67.9749969482422Q662.55,104.7249969482422,647.85,130.52499694824218Q661.35,148.0749969482422,679.05,158.1249969482422L671.1,169.8249969482422Q653.25,159.4749969482422,640.05,142.0749969482422Q626.85,158.7249969482422,605.7,169.8249969482422L597.15,158.27499694824218Q619.05,147.92499694824218,631.95,130.3749969482422Q620.85,112.52499694824219,613.5,89.27499694824219ZM639.45,117.92499694824218Q649.65,96.92499694824218,650.4,67.9749969482422L622.95,67.9749969482422L620.85,73.67499694824218Q627.9,98.42499694824218,639.45,117.92499694824218ZM693.75,134.27499694824218L693.75,121.2249969482422L752.25,121.2249969482422L752.25,115.2249969482422L766.35,115.2249969482422L766.35,121.2249969482422L823.95,121.2249969482422L823.95,134.27499694824218L782.85,134.27499694824218Q797.7,145.9749969482422,825.75,153.17499694824218L819.6,165.77499694824218Q783.9,153.6249969482422,768.3,134.27499694824218L766.35,134.27499694824218L766.35,169.67499694824218L752.25,169.67499694824218L752.25,134.27499694824218L750.3,134.27499694824218Q736.05,152.8749969482422,699.6,166.3749969482422L692.1,154.2249969482422Q722.7,145.2249969482422,735.9,134.27499694824218L693.75,134.27499694824218ZM707.4,72.02499694824219Q703.35,76.37499694824218,697.65,81.92499694824218L689.4,71.12499694824218Q708.15,54.17499694824219,717.75,30.474998948242188L731.1,33.474996948242186Q728.85,39.474996948242186,726.6,43.974996948242186L755.4,43.974996948242186Q752.55,37.675006948242185,749.1,32.27499694824219L763.65,29.874999948242188Q766.65,36.474996948242186,769.5,43.974996948242186L816.75,43.974996948242186L816.75,55.67499694824219L770.25,55.67499694824219L770.25,63.32499694824219L810.75,63.32499694824219L810.75,74.12499694824218L770.25,74.12499694824218L770.25,81.4749969482422L810.75,81.4749969482422L810.75,92.27499694824219L770.25,92.27499694824219L770.25,100.2249969482422L819.6,100.2249969482422L819.6,112.07499694824219L707.4,112.07499694824219L707.4,72.02499694824219ZM756.3,100.2249969482422L756.3,92.27499694824219L720.6,92.27499694824219L720.6,100.2249969482422L756.3,100.2249969482422ZM756.3,81.4749969482422L756.3,74.12499694824218L720.6,74.12499694824218L720.6,81.4749969482422L756.3,81.4749969482422ZM756.3,63.32499694824219L756.3,55.67499694824219L720.6,55.67499694824219L720.6,63.32499694824219L756.3,63.32499694824219Z" fill="#333333" fill-opacity="1"/></g></g></svg>